PathFileType	4	(X/Y/Z)	C:/Users/beibeiliu/ov580/test_trc/User3\sequence.8_training_dense_right.trc
DataRate	CameraRate	NumFrames	NumMarkers	Units	OrigDataRate	OrigDataStartFrame	OrigNumFrames
120	120	14	19	mm	120	147	235
Frame#	Time	ThumbCMC			ThumbMCP			ThumbIP			ThumbTip			IndexMCP			IndexPIP			IndexTip			MiddleMCP			MiddlePIP			MiddleTip			RingMCP			RingPIP			RingTip			PinkyMCP			PinkyPIP			PinkyTip			BackHand1			BackHand2			BackHand3	
		X0	Y0	Z0	X1	Y1	Z1	X2	Y2	Z2	X3	Y3	Z3	X4	Y4	Z4	X5	Y5	Z5	X6	Y6	Z6	X7	Y7	Z7	X8	Y8	Z8	X9	Y9	Z9	X10	Y10	Z10	X11	Y11	Z11	X12	Y12	Z12	X13	Y13	Z13	X14	Y14	Z14	X15	Y15	Z15	X16	Y16	Z16	X17	Y17	Z17	X18	Y18	Z18	
146	1.21667	122.688	-7.94557	43.5416	107.309	-20.1087	20.3913	102.625	-31.791	-10.5578	112.532	-45.7612	-26.4558	129.404	-1.18534	-33.6417	120.812	-13.5399	-52.6941	113.914	-38.3094	-71.5362	146.883	-16.6475	-34.1974	131.69	-47.4936	-38.5036	131.593	-50.9422	3.09509	162.418	-30.1697	-26.8982	147.582	-57.8988	-23.4138	144.054	-53.976	8.60395	178.185	-40.3161	-21.3302	159.513	-60.7668	-17.5403	152.689	-55.0786	11.3711	180.165	1.52063	16.5843	186.064	-2.84106	48.3884	154.075	10.9074	37.8201	
147	1.225	123.25	-9.31952	44.4911	108.762	-22.7109	20.2277	105.563	-34.7542	-8.08992	116.765	-48.1098	-25.9825	134.09	-6.87276	-30.8172	123.663	-21.7209	-53.9933	112.895	-45.134	-68.9302	150.718	-23.2258	-36.7575	131.938	-53.1521	-36.5675	130.014	-53.0288	3.82134	162.847	-33.5557	-27.453	150.767	-61.1516	-24.912	145.683	-57.234	9.05317	179.777	-40.0334	-17.1841	165.083	-63.9996	-18.0535	156.452	-63.2113	11.3741	182.63	-1.87425	18.62	186.118	-3.0007	46.3743	157.192	8.5743	37.0458	
148	1.23333	127.38	-10.7841	45.1147	109.572	-23.8208	17.797	106.609	-36.1963	-11.6975	117.253	-50.861	-27.611	135.17	-5.56384	-33.3909	126.899	-21.8551	-57.5091	114.624	-41.0205	-73.4104	150.865	-23.9821	-36.3582	137.377	-52.8593	-39.9744	135.279	-56.6751	2.3207	164.156	-35.8566	-29.0358	153.851	-63.7358	-25.4976	146.021	-58.3651	7.4751	182.804	-44.6114	-20.3758	167.109	-68.5575	-15.8706	158.269	-60.8708	13.0309	185.724	-5.64474	16.7084	189.039	-3.51187	48.7233	160.616	9.0802	36.3327	
149	1.24167	126.045	-11.0125	45.6732	112.747	-23.9351	20.9363	107.31	-37.4502	-11.8852	123.646	-51.49	-26.7709	142.633	-3.38246	-31.4819	135.587	-13.3319	-56.1854	128.553	-28.9801	-77.0908	154.348	-21.5251	-34.7452	139.11	-51.5308	-39.9916	138.016	-57.9721	0.818115	167.219	-34.505	-28.0232	156.143	-61.3535	-26.8932	149.805	-58.0304	9.67006	184.502	-44.4003	-19.9032	169.011	-66.9734	-17.5716	160.307	-61.8098	12.149	187.045	-3.45406	18.7823	192.709	-3.81348	48.9227	157.685	9.72713	34.7938	
150	1.25	129.02	-9.77263	44.3643	115.2	-22.984	14.6047	112.356	-36.1756	-11.5792	125.15	-50.6875	-31.7167	145.588	2.30517	-31.4402	141.173	-2.1098	-58.238	135.924	-16.9702	-86.0234	159.439	-22.128	-37.5604	144.213	-52.1433	-40.1734	141.243	-55.7708	-0.549131	173.253	-33.5681	-27.408	157.727	-62.8969	-25.1481	150.382	-59.3399	4.99185	187.335	-41.6994	-17.5159	173.471	-65.0831	-19.2368	163.077	-62.6409	12.2718	189.076	-1.88347	16.7915	192.06	-2.35103	47.5561	161.288	9.90658	33.2952	
151	1.25833	130.541	-6.91204	38.9897	115.497	-21.2919	12.8677	118.888	-33.7132	-16.3491	131.089	-49.4308	-31.4233	151.667	6.57842	-31.7445	154.14	2.8423	-58.076	152.998	-4.0911	-88.0455	166.454	-18.9487	-36.5442	148.91	-47.5638	-44.4536	140.024	-52.619	-6.12232	178.727	-36.8959	-31.3305	162.337	-62.1008	-25.6226	155.571	-57.737	4.06475	194.711	-44.9061	-17.594	173.392	-65.3901	-16.275	165.876	-58.2054	13.5507	192.325	-2.2317	18.1009	197.841	-4.73297	52.0757	164.34	10.6786	33.248	
152	1.26667	136.1	-7.48048	38.49	118.937	-19.7045	11.8937	118.02	-34.0913	-21.5907	133.2	-48.4344	-34.9846	160.977	7.19816	-31.9129	161.866	8.10712	-59.7205	164.335	4.48027	-85.6214	170.79	-20.1005	-41.7984	151.758	-45.4461	-44.8626	147.637	-51.4931	-6.55574	183.138	-33.1489	-28.4367	165.409	-56.8565	-29.5861	156.031	-53.9069	2.56513	194.836	-42.8722	-16.5803	175.695	-65.6411	-12.963	167.108	-57.4042	11.2366	200.565	-3.2016	19.1682	194.65	-3.84998	52.3851	165.93	11.447	34.7004	
153	1.275	136.978	-4.57333	39.0967	121.606	-16.237	8.12701	122.019	-30.0573	-23.8225	135.349	-47.569	-37.2227	164.52	12.294	-35.173	169.901	12.2771	-60.0168	175.531	9.83455	-83.9238	175.454	-13.9974	-38.3481	158.316	-45.4548	-45.6377	146.606	-46.8905	-7.61919	185.139	-32.3927	-31.8193	168.558	-57.0135	-27.2589	160.811	-51.5622	4.22764	198.49	-43.1845	-17.7422	177.853	-62.6813	-14.4066	167.006	-51.6571	11.0982	202.239	-2.93131	18.2301	200.62	-2.40706	48.4623	171.031	11.6607	34.3694	
154	1.28333	140.819	-4.63651	36.4161	125.961	-14.5997	5.11879	126.856	-28.9275	-23.4903	141.405	-45.5369	-39.4297	174.387	11.7987	-36.4207	178.246	14.8697	-61.7399	186.015	11.8661	-84.4564	182.564	-15.7115	-40.2129	165.88	-42.0237	-49.6947	149.797	-46.6631	-10.9595	192.265	-31.5966	-28.6147	176.191	-57.5783	-28.1193	161.022	-50.1961	1.87898	203.528	-44.3426	-15.5064	183.394	-62.5903	-16.3704	169.678	-56.9119	10.2467	202.274	-3.93919	20.9693	203.49	-6.13011	51.6976	173.229	14.2944	32.3402	
155	1.29167	143.952	-4.83424	35.9514	128.946	-14.3622	3.43496	129.901	-28.2975	-26.6712	146.881	-44.4656	-37.5948	180.435	11.3158	-34.1842	187.318	11.7554	-60.8326	191.701	13.5223	-80.6181	185.588	-15.2214	-42.4241	170.036	-45.1431	-49.0803	153.504	-47.6159	-12.1748	197.675	-34.1072	-26.3374	177.488	-58.8374	-27.2244	164.689	-48.5911	3.61193	207.832	-44.4777	-14.4133	184.489	-63.9627	-14.7821	170.943	-54.3998	10.8853	209.586	-5.62954	18.7964	204.839	-8.04149	52.0826	177.37	10.9202	33.3979	
156	1.3	143.833	-4.21088	32.3144	131.62	-16.1917	5.09087	132.905	-29.8781	-24.0102	146.351	-45.5178	-39.249	182.207	11.3599	-34.8626	191.155	12.3406	-61.3282	197.096	11.4239	-81.4112	191.532	-18.5557	-40.769	173.032	-41.192	-52.6625	158.549	-49.5453	-12.6214	196.963	-34.4863	-31.3723	176.527	-57.9883	-26.9593	166.22	-48.215	2.21649	209.957	-46.4107	-14.4179	187.549	-61.9284	-17.5557	173.262	-55.4082	11.683	209.821	-6.15032	18.386	203.954	-7.33232	51.9801	181.294	12.2076	31.721	
157	1.30833	142.801	-5.27754	33.2716	133.792	-16.6416	-1.54963	135.487	-31.0492	-29.2079	152.949	-47.8243	-39.2252	183.883	7.51173	-32.2943	190.271	10.9575	-60.5827	199.933	8.56874	-85.3512	191.388	-20.0633	-43.2364	175.059	-47.8486	-48.5151	160.208	-51.8687	-12.3509	202.112	-37.9057	-27.4202	181.388	-59.8242	-29.2116	170.042	-53.6687	3.57192	212.459	-47.9246	-14.5093	190.063	-64.0584	-17.5869	176.389	-59.7168	8.64323	210.758	-6.18433	23.703	205.054	-4.98615	53.1514	178.356	11.6456	30.369	
158	1.31667	145.248	-6.83351	27.4248	131.445	-18.4431	1.02986	136.697	-34.598	-27.2999	152.938	-52.5012	-41.5242	186.857	4.81839	-35.6387	189.943	6.09378	-59.914	201.796	1.58435	-84.5098	194.606	-22.991	-39.7416	177.048	-50.302	-49.4758	161.813	-55.4851	-12.5637	201.956	-38.775	-27.8108	182.667	-61.4722	-28.4349	167.116	-51.776	3.39773	214.212	-50.4424	-13.8377	189.45	-66.3429	-15.8115	178.882	-62.6892	11.3972	212.52	-7.93069	18.3934	204.19	-7.55982	49.7024	178.499	10.1443	28.2507	
159	1.325	143.625	-7.36441	31.0467	136.025	-21.7254	1.22752	136.074	-36.8666	-23.2944	153.666	-55.997	-39.4123	184.214	1.16218	-38.3519	189.481	-1.36924	-60.2054	196.044	-5.2577	-87.8806	193.244	-24.9037	-38.6032	174.87	-56.9563	-44.9432	160.876	-58.1651	-12.8328	200.054	-39.7328	-26.6139	181.182	-65.8768	-26.0041	169.622	-58.3533	3.90978	212.214	-49.2738	-12.0498	191.25	-71.3513	-13.62	176.594	-60.6782	9.62139	212.741	-10.7436	22.5655	208.588	-10.744	50.0198	184.191	7.28909	27.1699	
